HIERARCHY
ROOT Hips
{
    OFFSET 0.000000 0.000000 0.000000
    CHANNELS 6 Xposition Yposition Zposition Zrotation Xrotation Yrotation
    JOINT Spine
    {
        OFFSET -0.000000 14.517291 0.000000
        CHANNELS 3 Zrotation Xrotation Yrotation
        JOINT Spine1
        {
            OFFSET -0.000000 37.558300 0.000000
            CHANNELS 3 Zrotation Xrotation Yrotation
            JOINT Neck
            {
                OFFSET -0.000000 37.404057 3.400369
                CHANNELS 3 Zrotation Xrotation Yrotation
                JOINT Head
                {
                    OFFSET -0.000000 24.785618 -3.540803
                    CHANNELS 3 Zrotation Xrotation Yrotation
                    End Site
                    {
                        OFFSET -0.000000 35.408028 0.000000
                    }
                }
            }
            JOINT LeftShoulder
            {
                OFFSET 6.992933 33.973492 -0.192664
                CHANNELS 3 Zrotation Xrotation Yrotation
                JOINT LeftArm
                {
                    OFFSET 21.527611 0.000000 0.000000
                    CHANNELS 3 Zrotation Xrotation Yrotation
                    JOINT LeftForeArm
                    {
                        OFFSET 56.353916 0.000000 0.000000
                        CHANNELS 3 Zrotation Xrotation Yrotation
                        JOINT LeftHand
                        {
                            OFFSET 47.774071 0.000000 0.000000
                            CHANNELS 3 Zrotation Xrotation Yrotation
                            End Site
                            {
                                OFFSET 26.556021 0.000000 0.000000
                            }
                        }
                    }
                }
            }
            JOINT RightShoulder
            {
                OFFSET -7.065357 33.973492 -0.192664
                CHANNELS 3 Zrotation Xrotation Yrotation
                JOINT RightArm
                {
                    OFFSET -21.527611 0.000000 0.000000
                    CHANNELS 3 Zrotation Xrotation Yrotation
                    JOINT RightForeArm
                    {
                        OFFSET -56.353916 0.000000 0.000000
                        CHANNELS 3 Zrotation Xrotation Yrotation
                        JOINT RightHand
                        {
                            OFFSET -47.774071 0.000000 0.000000
                            CHANNELS 3 Zrotation Xrotation Yrotation
                            End Site
                            {
                                OFFSET -26.556021 0.000000 0.000000
                            }
                        }
                    }
                }
            }
        }
    }
    JOINT LeftUpLeg
    {
        OFFSET 17.704014 0.000000 0.000000
        CHANNELS 3 Zrotation Xrotation Yrotation
        JOINT LeftLeg
        {
            OFFSET -0.000000 -81.181816 0.000000
            CHANNELS 3 Zrotation Xrotation Yrotation
            JOINT LeftFoot
            {
                OFFSET -0.000000 -62.821102 0.000000
                CHANNELS 3 Zrotation Xrotation Yrotation
                JOINT LeftToeBase
                {
                    OFFSET -0.000000 -11.507608 26.556021
                    CHANNELS 3 Zrotation Xrotation Yrotation
                    End Site
                    {
                        OFFSET -0.000000 0.000000 7.081605
                    }
                }
            }
        }
    }
    JOINT RightUpLeg
    {
        OFFSET -17.704014 0.000000 0.000000
        CHANNELS 3 Zrotation Xrotation Yrotation
        JOINT RightLeg
        {
            OFFSET -0.000000 -81.181816 0.000000
            CHANNELS 3 Zrotation Xrotation Yrotation
            JOINT RightFoot
            {
                OFFSET -0.000000 -62.821102 0.000000
                CHANNELS 3 Zrotation Xrotation Yrotation
                JOINT RightToeBase
                {
                    OFFSET -0.000000 -11.507608 26.556021
                    CHANNELS 3 Zrotation Xrotation Yrotation
                    End Site
                    {
                        OFFSET -0.000000 0.000000 7.081605
                    }
                }
            }
        }
    }
}
MOTION
Frames:    4
Frame Time:    0.008333
-21.918985    163.901031    -78.808426    -8.569339    -22.298527    42.523029    3.741846    5.447134    -5.597562    3.088958    7.295293    -2.006222    22.045267    -0.253981    -0.987420    -0.406140    0.063427    -4.453651    12.502847    8.143841    -22.948137    -36.555954    22.155228    -36.863766    -2.316869    -33.495247    -110.557556    -2.976665    -36.004101    -11.166701    3.422013    -6.358701    -10.618917    23.214272    -31.422905    23.046261    -33.786324    -32.228127    68.612793    -4.195137    -10.879234    25.855459    24.756681    -0.021253    5.896171    -4.911550    35.933796    -16.596979    8.386463    -21.448992    35.424320    0.000000    0.000000    0.000000    -87.002312    -44.991730    -53.430077    7.624167    14.923094    -9.256428    21.852617    14.306701    -36.919498    0.000000    0.000000    0.000000    
-21.908224    163.874466    -78.798790    -8.563794    -22.263422    42.514641    3.711780    5.425569    -5.583630    3.079530    7.331390    -2.002727    22.419455    -0.261919    -0.919781    -0.870596    0.063132    -4.509405    12.563483    8.154977    -22.933807    -36.585682    22.151747    -36.949177    -2.346007    -33.442810    -110.593269    -2.925853    -35.994175    -11.115108    3.480215    -6.289339    -10.673364    23.313602    -31.414528    23.243902    -33.820660    -32.169689    68.549767    -4.208228    -10.818677    25.898558    24.729643    -0.053983    5.907109    -4.914075    35.988007    -16.600773    8.405501    -21.470322    35.430634    0.000000    0.000000    0.000000    -87.109489    -45.045124    -53.509396    6.953660    15.475682    -7.627793    23.533340    13.340967    -37.341911    0.000000    0.000000    0.000000    
-21.897594    163.851044    -78.792747    -8.566145    -22.220545    42.506344    3.671155    5.387622    -5.570443    3.109439    7.372865    -2.002364    22.412861    -0.250457    -0.923054    -0.851859    0.034787    -4.507017    12.580702    8.159948    -22.920986    -36.588650    22.187281    -37.024883    -2.331295    -33.451069    -110.608841    -2.889399    -35.989044    -11.092472    3.502063    -6.274723    -10.659631    23.353987    -31.412275    23.305561    -33.743420    -32.084473    68.606903    -4.309870    -10.776815    25.927601    24.702671    -0.092669    5.902084    -4.935632    36.023346    -16.589260    8.431833    -21.490444    35.462536    0.000000    0.000000    0.000000    -87.163170    -45.028076    -53.537090    6.963461    15.441980    -7.622353    23.582083    13.321125    -37.448975    0.000000    0.000000    0.000000    
-21.892422    163.832001    -78.784508    -8.568338    -22.190310    42.494091    3.630327    5.373953    -5.542451    3.165562    7.426654    -1.998863    22.378218    -0.336884    -0.918309    -0.831664    0.075941    -4.510928    12.592319    8.129131    -22.871580    -36.574974    22.244928    -37.125935    -2.339257    -33.444374    -110.658096    -2.836194    -35.999302    -11.049820    3.471491    -6.277785    -10.701521    23.438917    -31.284063    23.394197    -33.801357    -32.111240    68.556854    -4.359475    -10.796719    25.906384    24.691317    -0.121494    5.885248    -4.998087    36.167854    -16.536865    8.504202    -21.586325    35.501122    0.000000    0.000000    0.000000    -87.202972    -45.022636    -53.554493    6.969479    15.424795    -7.619007    23.618732    13.298451    -37.527973    0.000000    0.000000    0.000000    
